<?xml version="1.0" standalone="no"?>
<!DOCTYPE svg PUBLIC "-//W3C//DTD SVG 20010904//EN"
 "http://www.w3.org/TR/2001/REC-SVG-20010904/DTD/svg10.dtd">
<svg version="1.0" xmlns="http://www.w3.org/2000/svg"
 width="247.000000pt" height="247.000000pt" viewBox="0 0 247.000000 247.000000"
 preserveAspectRatio="xMidYMid meet">
<metadata>
Created by potrace 1.14, written by Peter Selinger 2001-2017
</metadata>
<g transform="translate(0.000000,247.000000) scale(0.100000,-0.100000)"
fill="#000000" stroke="none">
<path d="M1139 2446 c-4 -4 -78 -14 -107 -15 -8 -1 -10 -6 -6 -13 5 -10 4 -10
-6 -1 -8 7 -19 9 -29 4 -9 -5 -19 -10 -23 -10 -46 -8 -68 -15 -68 -22 0 -5 -5
-9 -10 -9 -6 0 -25 -6 -43 -13 -18 -8 -36 -14 -41 -15 -5 0 -13 -7 -18 -16 -5
-9 -13 -16 -19 -16 -5 0 -15 -5 -22 -10 -46 -39 -64 -58 -70 -73 -3 -9 -11
-17 -17 -17 -6 0 -8 -4 -5 -10 3 -5 0 -10 -8 -10 -8 0 -18 -7 -21 -16 -3 -8
-11 -12 -17 -8 -7 4 -9 3 -6 -3 4 -6 -2 -18 -13 -28 -11 -10 -17 -21 -15 -25
3 -4 -2 -13 -10 -20 -8 -7 -12 -16 -9 -21 3 -5 1 -9 -4 -9 -5 0 -9 -6 -9 -12
-1 -23 -8 -43 -18 -50 -13 -9 -17 -386 -4 -394 5 -3 7 -14 4 -24 -3 -10 -1
-21 5 -25 16 -10 12 -25 -12 -36 -13 -5 -28 -21 -35 -34 -6 -14 -8 -23 -4 -20
4 2 8 -12 9 -32 1 -19 6 -41 12 -48 5 -6 7 -15 3 -19 -11 -10 -12 -37 -2 -30
5 3 9 -7 10 -23 0 -15 2 -35 4 -43 2 -8 6 -26 9 -39 3 -12 10 -28 15 -35 5 -6
9 -13 8 -16 -5 -15 31 -47 48 -44 14 2 21 -3 22 -14 1 -15 -9 -17 -78 -17 -43
0 -79 4 -79 8 0 5 -6 5 -12 0 -7 -4 -26 -6 -42 -4 -34 3 -76 -16 -76 -36 0 -7
-3 -13 -8 -13 -11 0 -9 -134 3 -142 7 -5 7 -8 0 -8 -6 0 -11 -9 -11 -20 0 -11
5 -20 11 -20 5 0 3 -5 -5 -10 -12 -8 -12 -10 -1 -10 11 0 11 -3 1 -15 -10 -12
-10 -15 0 -15 9 0 9 -4 -1 -17 -8 -9 -9 -14 -3 -10 9 5 16 -65 17 -190 0 -18
4 -33 9 -33 5 0 6 -6 1 -12 -11 -19 -13 -39 -2 -32 12 7 11 -3 -2 -28 -8 -15
-8 -19 0 -14 24 15 9 -12 -29 -53 -22 -23 -40 -49 -40 -57 0 -9 -4 -13 -9 -10
-5 3 -12 -2 -17 -12 -4 -9 -8 -19 -9 -22 -2 -3 -6 -15 -10 -27 -4 -13 -11 -23
-16 -23 -5 0 -8 -3 -7 -7 1 -5 -4 -21 -10 -36 -7 -16 -10 -32 -7 -37 3 -5 1
-10 -5 -12 -5 -1 -11 -15 -12 -30 -1 -16 -5 -28 -8 -28 -6 0 -8 -11 -13 -60
-1 -14 -8 -29 -14 -33 -10 -6 -10 -12 -1 -27 12 -18 42 -19 1111 -19 605 0
1096 3 1093 6 -3 3 0 13 7 21 10 13 9 14 -2 7 -11 -6 -13 -4 -8 8 3 10 2 17
-3 17 -5 0 -7 9 -5 20 2 11 0 20 -5 20 -4 0 -7 11 -6 25 2 13 -1 22 -5 19 -8
-4 -14 25 -10 49 0 4 -3 7 -9 7 -6 0 -9 3 -8 8 2 4 -8 32 -22 62 -13 30 -23
58 -22 63 1 4 -3 7 -9 7 -5 0 -8 4 -5 9 3 5 -1 11 -9 15 -8 3 -15 12 -15 21 0
8 -5 15 -11 15 -5 0 -8 4 -4 9 3 5 -4 12 -15 16 -22 7 -22 7 -25 77 -2 26 0
46 4 44 4 -3 7 4 7 14 0 10 -4 16 -9 13 -7 -4 -3 28 9 64 2 7 -2 13 -9 13 -8
0 -8 3 -2 8 6 4 10 18 10 32 -1 14 2 32 6 41 4 8 4 21 -1 29 -5 8 -4 22 2 33
7 15 7 22 -3 28 -8 5 -9 9 -3 9 6 0 12 26 13 62 1 34 8 69 14 77 7 9 8 12 1 8
-7 -4 -11 8 -12 35 -1 22 -8 48 -14 56 -11 13 -10 14 2 8 8 -5 4 3 -10 17 -24
25 -31 26 -133 28 -59 1 -110 -1 -113 -3 -7 -8 -54 3 -54 13 0 4 5 11 12 15 7
5 8 3 3 -6 -6 -10 -4 -11 6 -4 14 9 19 10 40 13 5 0 7 5 4 11 -3 5 -1 10 4 10
6 0 11 9 11 21 0 11 5 17 10 14 6 -3 10 4 11 17 0 13 3 32 6 43 2 11 5 32 6
47 1 14 5 24 8 22 3 -2 6 16 7 38 1 23 5 44 10 47 4 3 7 22 7 41 0 27 -8 43
-35 69 -19 18 -30 31 -24 27 8 -4 14 13 19 47 13 89 20 183 15 197 -6 18 -7
39 -2 36 9 -6 7 77 -2 92 -4 7 -5 16 -1 21 3 5 1 12 -5 16 -5 3 -10 16 -10 29
0 12 -5 27 -12 34 -9 9 -9 12 3 12 9 0 10 3 3 8 -5 4 -18 25 -27 47 -10 22
-22 47 -28 55 -5 8 -12 23 -15 32 -4 10 -14 20 -25 23 -11 4 -16 12 -12 21 3
7 0 14 -6 14 -6 0 -24 14 -39 30 -16 17 -32 30 -36 30 -4 0 -16 9 -28 20 -12
10 -25 17 -30 14 -4 -3 -8 -1 -8 3 0 10 -74 43 -96 43 -9 0 -12 5 -8 12 5 7 2
9 -7 6 -8 -3 -25 -1 -39 5 -14 5 -34 11 -45 12 -50 8 -78 15 -88 23 -14 10
-27 10 -44 -1 -8 -5 -13 -3 -13 4 0 9 -3 9 -14 0 -8 -7 -17 -8 -19 -4 -3 5
-40 9 -82 10 -57 2 -74 -1 -68 -10 5 -9 3 -9 -9 0 -8 7 -17 11 -19 9z"/>
</g>
</svg>
